<svg width="594" height="496" viewBox="0 0 594 496" fill="none" xmlns="http://www.w3.org/2000/svg">
<g clip-path="url(#clip0)">
<path d="M27.6011 472.636C35.8405 487.92 53.3274 494.481 53.3274 494.481C53.3274 494.481 57.4557 476.262 49.2163 460.977C40.9769 445.693 23.49 439.132 23.49 439.132C23.49 439.132 19.3618 457.351 27.6011 472.636Z" fill="#2F2E41"/>
<path d="M33.2644 467.607C48.1398 476.559 53.8688 494.34 53.8688 494.34C53.8688 494.34 35.4799 497.608 20.6045 488.656C5.72901 479.703 0 461.922 0 461.922C0 461.922 18.3889 458.655 33.2644 467.607Z" fill="#6C63FF"/>
<path d="M366.774 23.8114H273.962V25.1377H366.774V23.8114Z" fill="#F2F2F2"/>
<path d="M341.582 24.8062H340.256V37.074H341.582V24.8062Z" fill="#F2F2F2"/>
<path d="M301.142 24.8062H299.816V37.074H301.142V24.8062Z" fill="#F2F2F2"/>
<path d="M413.843 87.4716H321.031V88.7978H413.843V87.4716Z" fill="#F2F2F2"/>
<path d="M347.549 75.5353H346.223V87.8031H347.549V75.5353Z" fill="#F2F2F2"/>
<path d="M387.988 75.5353H386.663V87.8031H387.988V75.5353Z" fill="#F2F2F2"/>
<path d="M537.151 117.312H444.339V118.639H537.151V117.312Z" fill="#F2F2F2"/>
<path d="M470.857 105.376H469.531V117.644H470.857V105.376Z" fill="#F2F2F2"/>
<path d="M511.296 105.376H509.97V117.644H511.296V105.376Z" fill="#F2F2F2"/>
<path d="M527.87 425.003H435.058V426.329H527.87V425.003Z" fill="#F2F2F2"/>
<path d="M461.575 413.067H460.25V425.335H461.575V413.067Z" fill="#F2F2F2"/>
<path d="M502.015 413.067H500.689V425.335H502.015V413.067Z" fill="#F2F2F2"/>
<path d="M369.426 212.14H276.613V213.466H369.426V212.14Z" fill="#F2F2F2"/>
<path d="M303.131 200.203H301.805V212.471H303.131V200.203Z" fill="#F2F2F2"/>
<path d="M343.571 200.203H342.245V212.471H343.571V200.203Z" fill="#F2F2F2"/>
<path d="M398.595 371.953H305.783V373.279H398.595V371.953Z" fill="#F2F2F2"/>
<path d="M332.301 360.017H330.975V372.285H332.301V360.017Z" fill="#F2F2F2"/>
<path d="M372.741 360.017H371.415V372.285H372.741V360.017Z" fill="#F2F2F2"/>
<path d="M547.095 323.545H454.283V324.871H547.095V323.545Z" fill="#F2F2F2"/>
<path d="M480.801 311.609H479.475V323.876H480.801V311.609Z" fill="#F2F2F2"/>
<path d="M521.241 311.609H519.915V323.876H521.241V311.609Z" fill="#F2F2F2"/>
<path d="M240.026 465.637H83.05V464.508H238.897V409.72H96.2467L89.3169 395.279L90.3352 394.791L96.9573 408.59H240.026V465.637Z" fill="#2F2E41"/>
<path d="M103.942 493.313C110.491 493.313 115.8 488.003 115.8 481.452C115.8 474.901 110.491 469.591 103.942 469.591C97.3935 469.591 92.0845 474.901 92.0845 481.452C92.0845 488.003 97.3935 493.313 103.942 493.313Z" fill="#3F3D56"/>
<path d="M220.828 493.313C227.377 493.313 232.686 488.003 232.686 481.452C232.686 474.901 227.377 469.591 220.828 469.591C214.279 469.591 208.97 474.901 208.97 481.452C208.97 488.003 214.279 493.313 220.828 493.313Z" fill="#3F3D56"/>
<path d="M358.606 236.886C362.66 236.886 365.946 233.599 365.946 229.543C365.946 225.488 362.66 222.201 358.606 222.201C354.552 222.201 351.265 225.488 351.265 229.543C351.265 233.599 354.552 236.886 358.606 236.886Z" fill="#3F3D56"/>
<path d="M256.816 391.081H80.3735L42.1956 266.257H296.133L295.902 266.991L256.816 391.081ZM81.2089 389.952H255.988L294.594 267.386H43.7219L81.2089 389.952Z" fill="#2F2E41"/>
<path d="M243.043 384.586H88.0671L54.5339 273.881H277.576L277.373 274.533L243.043 384.586Z" fill="#F2F2F2"/>
<path d="M299.297 255.105L298.205 254.815L305.657 226.719H349.007V227.849H306.527L299.297 255.105Z" fill="#2F2E41"/>
<path d="M283.444 304.099H54.533V305.229H283.444V304.099Z" fill="#2F2E41"/>
<path d="M270.334 345.717H67.2617V346.847H270.334V345.717Z" fill="#2F2E41"/>
<path d="M169.726 266.821H168.596V390.516H169.726V266.821Z" fill="#2F2E41"/>
<path d="M220.288 266.786L212.181 390.478L213.308 390.552L221.415 266.86L220.288 266.786Z" fill="#2F2E41"/>
<path d="M118.058 266.785L116.931 266.858L124.99 390.553L126.117 390.48L118.058 266.785Z" fill="#2F2E41"/>
<path d="M594 494.03H0V495.356H594V494.03Z" fill="#2F2E41"/>
<path d="M394.725 41.0317C394.725 41.0317 404.417 68.6219 398.453 72.8666C392.489 77.1112 418.581 111.776 418.581 111.776L449.891 103.287L432.745 74.2814C432.745 74.2814 430.508 45.2763 430.508 41.0316C430.508 36.787 394.725 41.0317 394.725 41.0317Z" fill="#A0616A"/>
<path opacity="0.1" d="M394.725 41.0317C394.725 41.0317 404.417 68.6219 398.453 72.8666C392.489 77.1112 418.581 111.776 418.581 111.776L449.891 103.287L432.745 74.2814C432.745 74.2814 430.508 45.2763 430.508 41.0316C430.508 36.787 394.725 41.0317 394.725 41.0317Z" fill="black"/>
<path d="M378.459 237.7C378.459 237.7 375.63 273.073 378.459 291.466C381.288 309.86 385.531 360.795 385.531 360.795C385.531 360.795 385.531 457.007 401.09 458.422C416.65 459.837 427.966 461.252 429.38 455.593C430.795 449.933 422.308 447.103 426.551 444.274C430.795 441.444 432.209 431.54 426.551 420.221C420.893 408.901 426.551 294.296 426.551 294.296L453.427 366.455C453.427 366.455 456.256 425.88 459.085 434.369C461.914 442.859 456.256 458.422 466.157 459.837C476.059 461.252 487.375 452.763 493.033 449.933C498.691 447.103 484.546 447.103 487.375 445.688C490.204 444.273 498.691 440.029 495.862 438.614C493.033 437.199 490.204 369.285 490.204 369.285C490.204 369.285 482.424 224.259 472.523 218.6C462.621 212.94 456.256 222.688 456.256 222.688L378.459 237.7Z" fill="#2F2E41"/>
<path d="M403.92 452.763V464.082C403.92 464.082 391.189 494.851 403.92 494.851C416.65 494.851 426.552 498.039 426.552 493.795V455.593L403.92 452.763Z" fill="#2F2E41"/>
<path d="M487.375 452.743V464.062C487.375 464.062 500.106 494.831 487.375 494.831C474.645 494.831 464.743 498.019 464.743 493.774V455.573L487.375 452.743Z" fill="#2F2E41"/>
<path d="M414.528 61.5474C428.59 61.5474 439.989 50.145 439.989 36.0795C439.989 22.0139 428.59 10.6116 414.528 10.6116C400.467 10.6116 389.067 22.0139 389.067 36.0795C389.067 50.145 400.467 61.5474 414.528 61.5474Z" fill="#A0616A"/>
<path d="M406.749 83.4781C406.749 83.4781 413.821 104.701 425.137 100.457L436.453 96.2121L456.256 232.041C456.256 232.041 440.697 254.679 418.065 240.53C395.433 226.381 406.749 83.4781 406.749 83.4781Z" fill="#6C63FF"/>
<path d="M426.552 79.2335L432.917 65.7921C432.917 65.7921 470.401 83.4782 476.059 89.1377C481.717 94.7972 481.717 103.287 481.717 103.287L471.815 138.659C471.815 138.659 474.644 216.477 474.644 219.307C474.644 222.137 484.546 237.701 477.473 232.041C470.401 226.381 468.986 220.722 463.328 229.211C457.67 237.701 444.94 247.605 444.94 247.605L426.552 79.2335Z" fill="#3F3D56"/>
<path d="M476.059 181.105L471.816 220.722C471.816 220.722 446.355 243.36 452.013 244.775C457.671 246.19 460.5 240.53 460.5 240.53C460.5 240.53 470.401 250.434 476.059 244.775C481.717 239.115 495.862 185.35 495.862 185.35L476.059 181.105Z" fill="#A0616A"/>
<path d="M415.071 0.086121C409.426 -0.115715 403.386 -0.215556 398.627 2.82696C396.437 4.35387 394.517 6.23441 392.944 8.39161C388.309 14.2526 384.304 21.6271 386.026 28.8991L388.026 28.119C388.026 30.0601 387.594 31.9769 386.763 33.7307C387.044 32.9117 387.987 34.2357 387.735 35.0642L385.532 42.2927C389.153 40.9649 393.657 43.6534 394.209 47.4715C394.46 39.0755 395.331 29.448 402.14 24.5318C405.574 22.0526 409.92 21.2957 414.101 20.6236C417.958 20.0036 422.002 19.4124 425.696 20.6826C429.391 21.9528 432.537 25.7323 431.699 29.5492C433.403 28.9622 435.308 30.1498 436.15 31.7432C436.992 33.3366 437.036 35.2163 437.062 37.0184C438.877 38.3021 440.944 35.753 441.684 33.6556C443.421 28.7323 444.965 23.4916 444.03 18.3553C443.094 13.219 438.909 8.31041 433.69 8.29299C434.323 7.59693 434.661 6.68166 434.632 5.74079L430.33 5.37719C431.423 5.22251 432.427 4.69281 433.172 3.87883C431.444 5.77997 417.864 0.185995 415.071 0.086121Z" fill="#2F2E41"/>
<path d="M413.821 74.9889C413.821 74.9889 402.306 63.7019 398.162 64.3933C394.018 65.0847 388.36 74.9889 388.36 74.9889C388.36 74.9889 354.412 86.308 355.827 97.627C357.241 108.946 372.801 164.127 372.801 164.127C372.801 164.127 385.531 230.626 374.215 237.701C362.899 244.775 427.966 263.168 429.381 254.679C430.795 246.19 433.624 161.297 429.381 148.563C425.137 135.829 413.821 74.9889 413.821 74.9889Z" fill="#3F3D56"/>
<path d="M463.329 97.627H480.819C480.819 97.627 493.033 151.393 494.448 157.052C495.862 162.712 498.691 189.594 497.277 189.594C495.862 189.594 467.572 183.935 467.572 188.18L463.329 97.627Z" fill="#3F3D56"/>
<path d="M462.737 230.768H395.779C389.245 200.702 388.699 171.653 395.779 143.899H462.737C451.931 171.154 451.256 200.004 462.737 230.768Z" fill="#F2F2F2"/>
<path d="M368.557 193.839L388.36 202.329C388.36 202.329 426.552 207.988 426.552 192.424C426.552 176.861 388.36 185.35 388.36 185.35L375.629 181.278L368.557 193.839Z" fill="#A0616A"/>
<path d="M372.801 89.1377L355.827 93.3824L343.096 168.371C343.096 168.371 338.852 188.18 345.925 189.594C352.998 191.009 372.801 202.328 372.801 202.328C372.801 202.328 375.63 181.105 381.288 181.105L367.143 169.786L375.63 120.265L372.801 89.1377Z" fill="#3F3D56"/>
<path d="M132.754 234.023H39.9414V235.349H132.754V234.023Z" fill="#F2F2F2"/>
<path d="M66.4594 222.086H65.1335V234.354H66.4594V222.086Z" fill="#F2F2F2"/>
<path d="M106.899 222.086H105.573V234.354H106.899V222.086Z" fill="#F2F2F2"/>
<path d="M165.238 37.7371H72.4258V39.0633H165.238V37.7371Z" fill="#F2F2F2"/>
<path d="M140.046 38.7318H138.72V50.9997H140.046V38.7318Z" fill="#F2F2F2"/>
<path d="M99.6067 38.7318H98.2808V50.9997H99.6067V38.7318Z" fill="#F2F2F2"/>
<path d="M258.714 168.373H165.901V169.699H258.714V168.373Z" fill="#F2F2F2"/>
<path d="M233.522 169.368H232.196V181.636H233.522V169.368Z" fill="#F2F2F2"/>
<path d="M193.082 169.368H191.756V181.636H193.082V169.368Z" fill="#F2F2F2"/>
<path d="M100.933 167.71H8.12012V169.036H100.933V167.71Z" fill="#F2F2F2"/>
<path d="M75.7407 168.705H74.4148V180.972H75.7407V168.705Z" fill="#F2F2F2"/>
<path d="M35.301 168.705H33.9751V180.972H35.301V168.705Z" fill="#F2F2F2"/>
<path d="M212.308 101.397H119.495V102.723H212.308V101.397Z" fill="#F2F2F2"/>
<path d="M146.013 89.4609H144.687V101.729H146.013V89.4609Z" fill="#F2F2F2"/>
<path d="M186.453 89.4609H185.127V101.729H186.453V89.4609Z" fill="#F2F2F2"/>
</g>
<defs>
<clipPath id="clip0">
<rect width="594" height="496" fill="white"/>
</clipPath>
</defs>
</svg>
