<svg width="239" height="40" viewBox="0 0 239 40" fill="none" xmlns="http://www.w3.org/2000/svg">
<path d="M0.793834 7.858H20.6198V13.378H8.38383V20.508H18.6418L17.7218 25.982H8.38383V39H0.793834V7.858ZM37.4285 27.914C37.4285 29.754 37.5512 31.2873 37.7965 32.514C38.0419 33.7407 38.3332 34.722 38.6705 35.458C39.0385 36.3473 39.4679 37.0373 39.9585 37.528L34.1165 39.368C33.7792 39.0613 33.4725 38.678 33.1965 38.218C32.9512 37.8193 32.7059 37.344 32.4605 36.792C32.2459 36.2093 32.0619 35.5347 31.9085 34.768C31.3872 36.2093 30.6205 37.3287 29.6085 38.126C28.5965 38.8927 27.2625 39.276 25.6065 39.276C24.1039 39.276 22.7852 39 21.6505 38.448C20.5465 37.896 19.6265 37.1293 18.8905 36.148C18.1545 35.136 17.6025 33.9247 17.2345 32.514C16.8972 31.1033 16.7285 29.5393 16.7285 27.822C16.7285 26.074 17.0045 24.4487 17.5565 22.946C18.1392 21.4433 18.9365 20.1553 19.9485 19.082C20.9605 17.978 22.1719 17.1193 23.5825 16.506C24.9932 15.8927 26.5572 15.586 28.2745 15.586C29.2252 15.586 30.2372 15.6627 31.3105 15.816C32.3839 15.9387 33.3652 16.092 34.2545 16.276C35.1439 16.4293 35.8799 16.5827 36.4625 16.736C37.0759 16.8587 37.3979 16.92 37.4285 16.92V27.914ZM26.8025 33.94C27.2625 33.94 27.6919 33.7407 28.0905 33.342C28.5199 32.9433 28.8879 32.4067 29.1945 31.732C29.5012 31.0573 29.7312 30.2907 29.8845 29.432C30.0685 28.5427 30.1605 27.6073 30.1605 26.626V21.29C29.9459 21.198 29.6392 21.1213 29.2405 21.06C28.8725 20.968 28.5505 20.922 28.2745 20.922C27.5385 20.922 26.9252 21.0907 26.4345 21.428C25.9439 21.7347 25.5452 22.1793 25.2385 22.762C24.9625 23.314 24.7632 23.9887 24.6405 24.786C24.5179 25.5833 24.4565 26.442 24.4565 27.362C24.4565 28.2207 24.4719 29.0487 24.5025 29.846C24.5332 30.6127 24.6252 31.3027 24.7785 31.916C24.9625 32.5293 25.2079 33.02 25.5145 33.388C25.8212 33.756 26.2505 33.94 26.8025 33.94ZM25.5145 10.112L33.8865 0.267997L38.6705 4.822C37.6892 6.018 36.6159 7.13733 35.4505 8.18C34.2852 9.22267 33.1965 10.1273 32.1845 10.894C30.9885 11.814 29.7925 12.642 28.5965 13.378L25.5145 10.112ZM53.296 22.44C52.928 22.0107 52.5447 21.6427 52.146 21.336C51.7473 21.0293 51.2413 20.876 50.628 20.876C50.26 20.876 49.846 20.9373 49.386 21.06C48.926 21.1827 48.4967 21.474 48.098 21.934C47.6993 22.3633 47.362 23.0073 47.086 23.866C46.8407 24.694 46.718 25.844 46.718 27.316C46.718 28.7573 46.856 29.9227 47.132 30.812C47.4387 31.6707 47.8067 32.33 48.236 32.79C48.696 33.25 49.1867 33.5567 49.708 33.71C50.26 33.8633 50.7813 33.94 51.272 33.94C51.64 33.94 52.0387 33.894 52.468 33.802C52.8973 33.71 53.296 33.618 53.664 33.526C54.0627 33.4033 54.4 33.296 54.676 33.204C54.952 33.0813 55.1053 33.02 55.136 33.02L56.47 37.85L55.964 38.08C55.6267 38.264 55.1513 38.4633 54.538 38.678C53.9553 38.862 53.2347 39.0307 52.376 39.184C51.548 39.3373 50.628 39.414 49.616 39.414C47.7453 39.414 46.1353 39.138 44.786 38.586C43.4367 38.034 42.3327 37.2673 41.474 36.286C40.6153 35.3047 39.9867 34.124 39.588 32.744C39.1893 31.3333 38.99 29.7847 38.99 28.098C38.99 26.0433 39.266 24.234 39.818 22.67C40.4007 21.0753 41.1827 19.7413 42.164 18.668C43.176 17.5947 44.3567 16.7973 45.706 16.276C47.086 15.724 48.5733 15.448 50.168 15.448C51.6707 15.448 52.9893 15.7547 54.124 16.368C55.2587 16.9507 56.1787 17.7327 56.884 18.714L53.296 22.44ZM62.4935 39.184C60.7455 39.184 59.3348 38.7393 58.2615 37.85C57.1882 36.93 56.6515 35.642 56.6515 33.986V15.908H63.9195V31.916C63.9195 32.6213 64.0268 33.0967 64.2415 33.342C64.4562 33.5873 64.7782 33.71 65.2075 33.71C65.4528 33.71 65.6982 33.6947 65.9435 33.664C66.1888 33.6027 66.3422 33.5567 66.4035 33.526L67.0475 38.08C67.0168 38.1107 66.8788 38.1873 66.6335 38.31C66.3882 38.402 66.0662 38.5247 65.6675 38.678C65.2688 38.8007 64.7935 38.908 64.2415 39C63.6895 39.1227 63.1068 39.184 62.4935 39.184ZM60.3775 4.822C61.6655 4.822 62.6468 5.20533 63.3215 5.972C63.9962 6.73867 64.3335 7.70467 64.3335 8.87C64.3335 10.066 63.9808 11.0627 63.2755 11.86C62.6008 12.6573 61.5735 13.056 60.1935 13.056C58.9055 13.056 57.9088 12.6727 57.2035 11.906C56.5288 11.1087 56.1915 10.1733 56.1915 9.1C56.1915 7.87333 56.5442 6.86133 57.2495 6.064C57.9548 5.236 58.9975 4.822 60.3775 4.822ZM73.0807 39.184C72.0073 39.184 71.0873 39.0307 70.3207 38.724C69.5847 38.4173 68.956 38.0033 68.4347 37.482C67.944 36.93 67.576 36.3013 67.3307 35.596C67.116 34.8907 67.0087 34.124 67.0087 33.296V6.892L74.2767 5.65V31.732C74.2767 32.468 74.3993 32.9893 74.6447 33.296C74.9207 33.572 75.4113 33.71 76.1167 33.71C76.454 33.71 76.822 33.6793 77.2207 33.618C77.65 33.5567 78.0333 33.4953 78.3707 33.434L79.0607 37.988C78.6007 38.2027 77.8187 38.4633 76.7147 38.77C75.6413 39.046 74.43 39.184 73.0807 39.184ZM108.187 39H102.437L98.6186 30.168C98.5266 29.9227 98.3426 29.478 98.0666 28.834C97.8213 28.1593 97.5299 27.408 97.1926 26.58C96.8859 25.7213 96.5639 24.8473 96.2266 23.958C95.8893 23.0687 95.5826 22.256 95.3066 21.52C95.3066 22.3173 95.3066 23.2373 95.3066 24.28C95.3066 25.3227 95.3066 26.3807 95.3066 27.454C95.3066 28.5273 95.2913 29.5393 95.2606 30.49C95.2606 31.4407 95.2453 32.192 95.2146 32.744L94.9846 39H87.9926L89.8326 7.858H96.3646L103.541 25.798C103.755 26.35 104.031 27.132 104.369 28.144C104.737 29.1253 105.089 30.1987 105.427 31.364C105.764 30.2293 106.101 29.1713 106.439 28.19C106.807 27.178 107.113 26.3807 107.359 25.798L114.535 7.858H120.929L122.769 39H115.639L115.363 32.744C115.332 32.1613 115.301 31.3947 115.271 30.444C115.271 29.4933 115.271 28.4967 115.271 27.454C115.271 26.3807 115.271 25.3227 115.271 24.28C115.301 23.2067 115.317 22.2867 115.317 21.52C115.071 22.164 114.795 22.9 114.489 23.728C114.213 24.5253 113.921 25.3073 113.615 26.074C113.308 26.8407 113.017 27.5613 112.741 28.236C112.465 28.88 112.25 29.386 112.097 29.754L108.187 39ZM123.389 28.098C123.389 26.0433 123.681 24.234 124.263 22.67C124.877 21.0753 125.705 19.7567 126.747 18.714C127.821 17.6407 129.063 16.828 130.473 16.276C131.884 15.724 133.417 15.448 135.073 15.448C136.515 15.448 137.741 15.632 138.753 16C139.765 16.3373 140.593 16.828 141.237 17.472C141.881 18.0853 142.357 18.8213 142.663 19.68C142.97 20.508 143.123 21.4127 143.123 22.394C143.123 23.498 142.847 24.5407 142.295 25.522C141.743 26.5033 140.946 27.3773 139.903 28.144C138.891 28.88 137.649 29.4933 136.177 29.984C134.736 30.4747 133.095 30.7967 131.255 30.95C131.47 31.87 131.853 32.6213 132.405 33.204C132.988 33.756 133.862 34.032 135.027 34.032C135.702 34.032 136.423 33.9553 137.189 33.802C137.956 33.6487 138.661 33.48 139.305 33.296C140.072 33.0813 140.823 32.836 141.559 32.56L142.939 37.344C142.111 37.7427 141.207 38.0953 140.225 38.402C139.397 38.6473 138.431 38.8773 137.327 39.092C136.254 39.3067 135.104 39.414 133.877 39.414C132.007 39.414 130.397 39.138 129.047 38.586C127.729 38.034 126.64 37.2673 125.781 36.286C124.953 35.3047 124.34 34.124 123.941 32.744C123.573 31.3333 123.389 29.7847 123.389 28.098ZM134.153 20.646C133.571 20.646 133.065 20.8147 132.635 21.152C132.237 21.4893 131.915 21.934 131.669 22.486C131.424 23.038 131.24 23.6513 131.117 24.326C130.995 25.0007 130.918 25.66 130.887 26.304C131.807 26.2733 132.574 26.1353 133.187 25.89C133.831 25.6447 134.353 25.338 134.751 24.97C135.15 24.602 135.441 24.2033 135.625 23.774C135.809 23.3447 135.901 22.946 135.901 22.578C135.901 21.9953 135.733 21.5353 135.395 21.198C135.089 20.83 134.675 20.646 134.153 20.646ZM155.521 22.532C155.184 22.532 154.816 22.624 154.417 22.808C154.018 22.992 153.635 23.2833 153.267 23.682C152.899 24.05 152.592 24.5407 152.347 25.154C152.102 25.7367 151.979 26.442 151.979 27.27V39H144.711V27.04C144.711 25.2 144.573 23.682 144.297 22.486C144.052 21.2593 143.76 20.2627 143.423 19.496C143.055 18.6373 142.641 17.9473 142.181 17.426L148.023 15.586C148.268 15.8927 148.529 16.2453 148.805 16.644C149.02 16.9813 149.25 17.4107 149.495 17.932C149.74 18.4533 149.94 19.0513 150.093 19.726C150.86 18.254 151.764 17.196 152.807 16.552C153.88 15.908 155.138 15.586 156.579 15.586C157.223 15.586 157.79 15.6473 158.281 15.77C158.802 15.862 159.232 15.9693 159.569 16.092L157.683 23.038C157.468 22.9153 157.177 22.808 156.809 22.716C156.472 22.5933 156.042 22.532 155.521 22.532ZM171.122 22.44C170.754 22.0107 170.371 21.6427 169.972 21.336C169.574 21.0293 169.068 20.876 168.454 20.876C168.086 20.876 167.672 20.9373 167.212 21.06C166.752 21.1827 166.323 21.474 165.924 21.934C165.526 22.3633 165.188 23.0073 164.912 23.866C164.667 24.694 164.544 25.844 164.544 27.316C164.544 28.7573 164.682 29.9227 164.958 30.812C165.265 31.6707 165.633 32.33 166.062 32.79C166.522 33.25 167.013 33.5567 167.534 33.71C168.086 33.8633 168.608 33.94 169.098 33.94C169.466 33.94 169.865 33.894 170.294 33.802C170.724 33.71 171.122 33.618 171.49 33.526C171.889 33.4033 172.226 33.296 172.502 33.204C172.778 33.0813 172.932 33.02 172.962 33.02L174.296 37.85L173.79 38.08C173.453 38.264 172.978 38.4633 172.364 38.678C171.782 38.862 171.061 39.0307 170.202 39.184C169.374 39.3373 168.454 39.414 167.442 39.414C165.572 39.414 163.962 39.138 162.612 38.586C161.263 38.034 160.159 37.2673 159.3 36.286C158.442 35.3047 157.813 34.124 157.414 32.744C157.016 31.3333 156.816 29.7847 156.816 28.098C156.816 26.0433 157.092 24.234 157.644 22.67C158.227 21.0753 159.009 19.7413 159.99 18.668C161.002 17.5947 162.183 16.7973 163.532 16.276C164.912 15.724 166.4 15.448 167.994 15.448C169.497 15.448 170.816 15.7547 171.95 16.368C173.085 16.9507 174.005 17.7327 174.71 18.714L171.122 22.44ZM193.579 27.914C193.579 29.754 193.701 31.2873 193.947 32.514C194.192 33.7407 194.483 34.722 194.821 35.458C195.189 36.3473 195.618 37.0373 196.109 37.528L190.267 39.368C189.929 39.0613 189.623 38.678 189.347 38.218C189.101 37.8193 188.856 37.344 188.611 36.792C188.396 36.2093 188.212 35.5347 188.059 34.768C187.537 36.2093 186.771 37.3287 185.759 38.126C184.747 38.8927 183.413 39.276 181.757 39.276C180.254 39.276 178.935 39 177.801 38.448C176.697 37.896 175.777 37.1293 175.041 36.148C174.305 35.136 173.753 33.9247 173.385 32.514C173.047 31.1033 172.879 29.5393 172.879 27.822C172.879 26.074 173.155 24.4487 173.707 22.946C174.289 21.4433 175.087 20.1553 176.099 19.082C177.111 17.978 178.322 17.1193 179.733 16.506C181.143 15.8927 182.707 15.586 184.425 15.586C185.375 15.586 186.387 15.6627 187.461 15.816C188.534 15.9387 189.515 16.092 190.405 16.276C191.294 16.4293 192.03 16.5827 192.613 16.736C193.226 16.8587 193.548 16.92 193.579 16.92V27.914ZM182.953 33.94C183.413 33.94 183.842 33.7407 184.241 33.342C184.67 32.9433 185.038 32.4067 185.345 31.732C185.651 31.0573 185.881 30.2907 186.035 29.432C186.219 28.5427 186.311 27.6073 186.311 26.626V21.29C186.096 21.198 185.789 21.1213 185.391 21.06C185.023 20.968 184.701 20.922 184.425 20.922C183.689 20.922 183.075 21.0907 182.585 21.428C182.094 21.7347 181.695 22.1793 181.389 22.762C181.113 23.314 180.913 23.9887 180.791 24.786C180.668 25.5833 180.607 26.442 180.607 27.362C180.607 28.2207 180.622 29.0487 180.653 29.846C180.683 30.6127 180.775 31.3027 180.929 31.916C181.113 32.5293 181.358 33.02 181.665 33.388C181.971 33.756 182.401 33.94 182.953 33.94ZM212.528 39.368L212.252 39.046C212.068 38.862 211.854 38.5707 211.608 38.172C211.363 37.7733 211.118 37.298 210.872 36.746C210.627 36.1633 210.443 35.504 210.32 34.768C209.799 36.2093 209.032 37.3287 208.02 38.126C207.008 38.8927 205.674 39.276 204.018 39.276C202.516 39.276 201.197 39 200.062 38.448C198.958 37.896 198.038 37.1293 197.302 36.148C196.566 35.136 196.014 33.9247 195.646 32.514C195.309 31.1033 195.14 29.5393 195.14 27.822C195.14 26.074 195.416 24.4487 195.968 22.946C196.551 21.4433 197.348 20.1553 198.36 19.082C199.372 17.978 200.584 17.1193 201.994 16.506C203.405 15.8927 204.969 15.586 206.686 15.586C206.962 15.586 207.254 15.6013 207.56 15.632C207.898 15.6627 208.235 15.6933 208.572 15.724V5.696L215.84 6.892V27.914C215.84 29.7233 215.963 31.2413 216.208 32.468C216.484 33.6947 216.776 34.6913 217.082 35.458C217.389 36.194 217.68 36.7153 217.956 37.022L218.37 37.528L212.528 39.368ZM205.214 33.94C205.674 33.94 206.104 33.7407 206.502 33.342C206.932 32.9433 207.3 32.4067 207.606 31.732C207.913 31.0573 208.143 30.2907 208.296 29.432C208.48 28.5427 208.572 27.6073 208.572 26.626V21.29C208.358 21.198 208.051 21.1213 207.652 21.06C207.284 20.968 206.962 20.922 206.686 20.922C205.95 20.922 205.337 21.0907 204.846 21.428C204.356 21.7347 203.957 22.1793 203.65 22.762C203.374 23.314 203.175 23.9887 203.052 24.786C202.93 25.5833 202.868 26.442 202.868 27.362C202.868 28.2207 202.884 29.0487 202.914 29.846C202.945 30.6127 203.037 31.3027 203.19 31.916C203.374 32.5293 203.62 33.02 203.926 33.388C204.233 33.756 204.662 33.94 205.214 33.94ZM228.304 15.448C231.953 15.448 234.606 16.4907 236.262 18.576C237.948 20.6613 238.792 23.544 238.792 27.224C238.792 28.972 238.562 30.5973 238.102 32.1C237.672 33.572 236.998 34.86 236.078 35.964C235.188 37.0373 234.054 37.896 232.674 38.54C231.324 39.1533 229.745 39.46 227.936 39.46C226.096 39.46 224.501 39.1993 223.152 38.678C221.833 38.126 220.744 37.344 219.886 36.332C219.058 35.32 218.429 34.0933 218 32.652C217.601 31.18 217.402 29.5393 217.402 27.73C217.402 25.982 217.616 24.3567 218.046 22.854C218.506 21.3513 219.18 20.0633 220.07 18.99C220.99 17.886 222.124 17.0273 223.474 16.414C224.854 15.77 226.464 15.448 228.304 15.448ZM227.89 20.922C227.338 20.922 226.878 21.0907 226.51 21.428C226.142 21.7347 225.85 22.1793 225.636 22.762C225.452 23.314 225.314 23.9733 225.222 24.74C225.16 25.5067 225.13 26.3347 225.13 27.224C225.13 28.144 225.176 29.018 225.268 29.846C225.36 30.674 225.513 31.3947 225.728 32.008C225.973 32.6213 226.31 33.112 226.74 33.48C227.169 33.8173 227.706 33.986 228.35 33.986C228.902 33.986 229.362 33.8173 229.73 33.48C230.098 33.1427 230.374 32.698 230.558 32.146C230.772 31.5633 230.91 30.8887 230.972 30.122C231.064 29.3553 231.11 28.5427 231.11 27.684C231.11 26.7333 231.064 25.8593 230.972 25.062C230.88 24.234 230.711 23.5133 230.466 22.9C230.251 22.2867 229.929 21.8113 229.5 21.474C229.07 21.106 228.534 20.922 227.89 20.922Z" fill="#6C63FF"/>
</svg>
